{"title":"Crno.Seme.aka.Black.Seed.1971.DVDRip.XviD[MKD]-NWO.","uid":7597483,"size":726828829,"categoryP":"video","categoryS":"movies","magnet":"?xt=urn:btih:34c13e02bf5731193602760b0756dffdf9769de2&amp;dn=Crno.Seme.aka.Black.Seed.1971.DVDRip.XviD%5BMKD%5D-NWO.&amp;tr=udp%3A%2F%2Ftracker.openbittorrent.com%3A80&amp;tr=udp%3A%2F%2Fopen.demonii.com%3A1337&amp;tr=udp%3A%2F%2Ftracker.coppersurfer.tk%3A6969&amp;tr=udp%3A%2F%2Fexodus.desync.com%3A6969","seeders":0,"leechers":1,"uploader":null,"files":3,"time":1346732502,"description":"Format                         : AVI\nFormat/Info                    : Audio Video Interleave\nFile size                      : 693 MiB\nDuration                       : 1h 23mn\nOverall bit rate mode          : Variable\nOverall bit rate               : 1 160 Kbps\nWriting application            : VirtualDubMod 1.5.10.3\nWriting library                : VirtualDubMod build 2550/release\n\nVideo\nID                             : 0\nFormat                         : MPEG-4 Visual\nFormat profile                 : Advanced Simple@L5\nFormat settings, BVOP          : 1\nFormat settings, QPel          : No\nFormat settings, GMC           : No warppoints\nFormat settings, Matrix        : Default (H.263)\nMuxing mode                    : Packed bitstream\nCodec ID                       : DX50\nCodec ID/Hint                  : DivX 5\nDuration                       : 1h 23mn\nBit rate                       : 1 035 Kbps\nWidth                          : 680 pixels\nHeight                         : 416 pixels\nDisplay aspect ratio           : 1.635\nFrame rate                     : 25.000 fps\nColor space                    : YUV\nChroma subsampling             : 4:2:0\nBit depth                      : 8 bits\nScan type                      : Progressive\nCompression mode               : Lossy\nBits/(Pixel*Frame)             : 0.146\nStream size                    : 618 MiB (89%)\nWriting library                : XviD 64\n\nAudio\nID                             : 1\nFormat                         : MPEG Audio\nFormat version                 : Version 1\nFormat profile                 : Layer 3\nMode                           : Joint stereo\nMode extension                 : MS Stereo\nCodec ID                       : 55\nCodec ID/Hint                  : MP3\nDuration                       : 1h 23mn\nBit rate mode                  : Variable\nBit rate                       : 112 Kbps\nChannel(s)                     : 2 channels\nSampling rate                  : 44.1 KHz\nCompression mode               : Lossy\nStream size                    : 67.2 MiB (10%)\nAlignment                      : Aligned on interleaves\nInterleave, duration           : 26 ms (0.65 video frame)\nInterleave, preload duration   : 515 ms\nWriting library                : LAME3.99r\nEncoding settings              : -m j -V 4 -q 2 -lowpass 15.6 --abr 112","torrent":{"xt":"urn:btih:34c13e02bf5731193602760b0756dffdf9769de2","amp;dn":"Crno.Seme.aka.Black.Seed.1971.DVDRip.XviD%5BMKD%5D-NWO.","amp;tr":["udp%3A%2F%2Ftracker.openbittorrent.com%3A80","udp%3A%2F%2Fopen.demonii.com%3A1337","udp%3A%2F%2Ftracker.coppersurfer.tk%3A6969","udp%3A%2F%2Fexodus.desync.com%3A6969"],"infoHash":"34c13e02bf5731193602760b0756dffdf9769de2","infoHashBuffer":{"type":"Buffer","data":[52,193,62,2,191,87,49,25,54,2,118,11,7,86,223,253,249,118,157,226]},"announce":[],"urlList":[]}}